# xmcd
#
# Track frame offsets:
#  150
#  17505
#  39219
#  59740
#  76638
#  92735
#  103958
#  114951
#  135119
#  152043
#  168804
#
# Disc length: 2428 seconds
#
# Revision: 0
# Processed by: cddbd v1.5.2PL0 Copyright (c) Steve Scherf et al.
# Submitted via: AltoMP3_Maker 3.0
#
DISCID=74097a0b
DTITLE=Frreddie King - Woman Across The Water
DYEAR=1900
DGENRE=
TTITLE0=Woman across the water
TTITLE1=Hootchie kootchie man
TTITLE2=Danger zone
TTITLE3=Boogie man
TTITLE4=Leave my woman alone
TTITLE5=Just a little bit
TTITLE6=Yonder wall
TTITLE7=Help me through the day
TTITLE8=I'm ready
TTITLE9=Trouble in mind
TTITLE10=you don't have to go
EXTD=
EXTT0=
EXTT1=
EXTT2=
EXTT3=
EXTT4=
EXTT5=
EXTT6=
EXTT7=
EXTT8=
EXTT9=
EXTT10=
PLAYORDER=
